<mxfile host="app.diagrams.net" modified="2021-11-12T01:44:33.940Z" agent="5.0 (Windows)" etag="O-Rfh1NdrS93MkmUZhIa" version="15.7.0" type="github">
  <diagram id="h0lRl23aUECnAmZVRxoX" name="Page-1">
    <mxGraphModel dx="1108" dy="1581" grid="1" gridSize="10" guides="1" tooltips="1" connect="1" arrows="1" fold="1" page="1" pageScale="1" pageWidth="827" pageHeight="1169" math="0" shadow="0">
      <root>
        <mxCell id="0" />
        <mxCell id="1" parent="0" />
        <mxCell id="yS3bzjLrTuG16rpBDf_M-22" value="" style="rounded=0;whiteSpace=wrap;html=1;align=left;" vertex="1" parent="1">
          <mxGeometry x="210" y="65" width="529" height="410" as="geometry" />
        </mxCell>
        <mxCell id="yS3bzjLrTuG16rpBDf_M-1" value="User" style="shape=umlActor;verticalLabelPosition=bottom;verticalAlign=top;html=1;outlineConnect=0;" vertex="1" parent="1">
          <mxGeometry x="110" y="80" width="50" height="100" as="geometry" />
        </mxCell>
        <mxCell id="yS3bzjLrTuG16rpBDf_M-11" style="edgeStyle=orthogonalEdgeStyle;rounded=0;orthogonalLoop=1;jettySize=auto;html=1;exitX=0.5;exitY=1;exitDx=0;exitDy=0;entryX=0.136;entryY=0;entryDx=0;entryDy=0;entryPerimeter=0;" edge="1" parent="1" source="yS3bzjLrTuG16rpBDf_M-3" target="yS3bzjLrTuG16rpBDf_M-7">
          <mxGeometry relative="1" as="geometry" />
        </mxCell>
        <mxCell id="yS3bzjLrTuG16rpBDf_M-3" value="NSDS Login" style="whiteSpace=wrap;html=1;aspect=fixed;" vertex="1" parent="1">
          <mxGeometry x="240" y="80" width="120" height="120" as="geometry" />
        </mxCell>
        <mxCell id="yS3bzjLrTuG16rpBDf_M-14" style="edgeStyle=orthogonalEdgeStyle;rounded=0;orthogonalLoop=1;jettySize=auto;html=1;exitX=0.25;exitY=1;exitDx=0;exitDy=0;entryX=0.432;entryY=0.033;entryDx=0;entryDy=0;entryPerimeter=0;" edge="1" parent="1" source="yS3bzjLrTuG16rpBDf_M-5" target="yS3bzjLrTuG16rpBDf_M-7">
          <mxGeometry relative="1" as="geometry" />
        </mxCell>
        <mxCell id="yS3bzjLrTuG16rpBDf_M-5" value="CINV UPLOAD" style="whiteSpace=wrap;html=1;aspect=fixed;" vertex="1" parent="1">
          <mxGeometry x="400" y="80" width="120" height="120" as="geometry" />
        </mxCell>
        <mxCell id="yS3bzjLrTuG16rpBDf_M-6" value="NSDS CONFIRMATION" style="whiteSpace=wrap;html=1;aspect=fixed;" vertex="1" parent="1">
          <mxGeometry x="560" y="80" width="120" height="120" as="geometry" />
        </mxCell>
        <mxCell id="yS3bzjLrTuG16rpBDf_M-7" value="NSDS FILE UPLOAD CONTROLLER" style="rounded=0;whiteSpace=wrap;html=1;" vertex="1" parent="1">
          <mxGeometry x="240" y="240" width="440" height="60" as="geometry" />
        </mxCell>
        <mxCell id="yS3bzjLrTuG16rpBDf_M-8" value="ORACLE DATABASE" style="shape=cylinder3;whiteSpace=wrap;html=1;boundedLbl=1;backgroundOutline=1;size=15;" vertex="1" parent="1">
          <mxGeometry x="385" y="340" width="130" height="130" as="geometry" />
        </mxCell>
        <mxCell id="yS3bzjLrTuG16rpBDf_M-9" value="" style="endArrow=classic;startArrow=classic;html=1;rounded=0;exitX=0.5;exitY=0;exitDx=0;exitDy=0;exitPerimeter=0;" edge="1" parent="1" source="yS3bzjLrTuG16rpBDf_M-8">
          <mxGeometry width="50" height="50" relative="1" as="geometry">
            <mxPoint x="390" y="330" as="sourcePoint" />
            <mxPoint x="450" y="300" as="targetPoint" />
          </mxGeometry>
        </mxCell>
        <mxCell id="yS3bzjLrTuG16rpBDf_M-15" value="" style="endArrow=classic;html=1;rounded=0;entryX=0.5;entryY=1;entryDx=0;entryDy=0;" edge="1" parent="1" target="yS3bzjLrTuG16rpBDf_M-6">
          <mxGeometry width="50" height="50" relative="1" as="geometry">
            <mxPoint x="620" y="240" as="sourcePoint" />
            <mxPoint x="440" y="280" as="targetPoint" />
          </mxGeometry>
        </mxCell>
        <mxCell id="yS3bzjLrTuG16rpBDf_M-17" value="&lt;div&gt;CURRENT CONDITION&lt;/div&gt;&lt;div&gt;&lt;br&gt;&lt;/div&gt;&lt;div align=&quot;left&quot;&gt;*CINV FILE UPLOAD TO NSDS SCHEDULE DEPEND ON SUPPLIER STANDARD TIME &quot;ASKING USER ACTUAL PRACTISE&quot;&lt;br&gt;&lt;/div&gt;&lt;div align=&quot;left&quot;&gt;&lt;br&gt;&lt;/div&gt;&lt;div align=&quot;left&quot;&gt;*ORACLE DATA NOT DIRECTLY INTEGRATE TO IMPORT DECLARATION DATA (PIB)&lt;br&gt;&lt;/div&gt;&lt;div align=&quot;left&quot;&gt;&lt;br&gt;&lt;/div&gt;&lt;div align=&quot;left&quot;&gt;&lt;br&gt;&lt;/div&gt;" style="text;html=1;strokeColor=none;fillColor=none;spacing=5;spacingTop=-20;whiteSpace=wrap;overflow=hidden;rounded=0;align=left;" vertex="1" parent="1">
          <mxGeometry x="325" y="-130" width="190" height="160" as="geometry" />
        </mxCell>
        <mxCell id="yS3bzjLrTuG16rpBDf_M-18" value="" style="endArrow=classic;html=1;rounded=0;" edge="1" parent="1">
          <mxGeometry width="50" height="50" relative="1" as="geometry">
            <mxPoint x="492" y="240" as="sourcePoint" />
            <mxPoint x="492" y="200" as="targetPoint" />
            <Array as="points" />
          </mxGeometry>
        </mxCell>
        <mxCell id="yS3bzjLrTuG16rpBDf_M-19" value="&lt;div&gt;FUTURE IMPROVEMENT&lt;br&gt;&lt;/div&gt;&lt;div&gt;&lt;br&gt;&lt;/div&gt;&lt;div align=&quot;left&quot;&gt;*NEGOTIATE TO SUPPLIER TO PROVIDE DATA MAXIMUM 3 WORKING DAYS BEFORE SHIPMENT ARRIVAL DATE&lt;br&gt;&lt;/div&gt;&lt;div align=&quot;left&quot;&gt;&lt;br&gt;&lt;/div&gt;&lt;div align=&quot;left&quot;&gt;*NSDS USER MUST UPLOAD DATA MAXIMUM 2 WORKING DAYS BEFORE ARRIVAL DATE&lt;/div&gt;&lt;div align=&quot;left&quot;&gt;&lt;br&gt;&lt;/div&gt;&lt;div align=&quot;left&quot;&gt;* ORACLE DATA WILL BE CONSUME BY DO-IT (IMPORT SYSTEM)&lt;br&gt;&lt;/div&gt;&lt;div align=&quot;left&quot;&gt;&lt;br&gt;&lt;/div&gt;&lt;div align=&quot;left&quot;&gt;&lt;br&gt;&lt;/div&gt;" style="text;html=1;strokeColor=none;fillColor=none;spacing=5;spacingTop=-20;whiteSpace=wrap;overflow=hidden;rounded=0;align=left;" vertex="1" parent="1">
          <mxGeometry x="520" y="-130" width="190" height="200" as="geometry" />
        </mxCell>
        <mxCell id="yS3bzjLrTuG16rpBDf_M-23" value="ORACLE DATABASE" style="shape=cylinder3;whiteSpace=wrap;html=1;boundedLbl=1;backgroundOutline=1;size=15;" vertex="1" parent="1">
          <mxGeometry x="385" y="520" width="130" height="130" as="geometry" />
        </mxCell>
      </root>
    </mxGraphModel>
  </diagram>
</mxfile>
